# xmcd
#
# Track frame offsets: 
#        150
#        24934
#        50103
#        83757
#        111748
#        127991
#        154500
#        181761
#
# Disc length: 2880 seconds
#
# Revision: 1
# Processed by: cddbd v1.5.2PL0 Copyright (c) Steve Scherf et al.
# Submitted via: ExactAudioCopyFreeDBPlugin 1.0
#
DISCID=5e0b3e08
DTITLE=Buddy Rich - Buddy Rich (SACD)
DYEAR=2006
DGENRE=Jazz
TTITLE0=Moments Notice
TTITLE1=Giant Steps
TTITLE2=Buddy's Cherokee
TTITLE3=Take the A Train
TTITLE4=I'll never be the same
TTITLE5=Buddy's Room
TTITLE6=My Funny Balentine
TTITLE7=Latin Silk
EXTD=
EXTT0=
EXTT1=
EXTT2=
EXTT3=
EXTT4=
EXTT5=
EXTT6=
EXTT7=
PLAYORDER=
